<svg xmlns="http://www.w3.org/2000/svg" xmlns:xlink="http://www.w3.org/1999/xlink" version="1.1" x="0px" y="0px" viewBox="0 0 32 40" style="enable-background:new 0 0 32 32;" xml:space="preserve"><g><path d="M30.7,15.3L18.1,2.7c-1.1-1.1-3.1-1.1-4.2,0L1.3,15.3C1,15.6,0.9,16,1.1,16.4S1.6,17,2,17h3v11c0,1.7,1.3,3,3,3h3   c1.7,0,3-1.3,3-3v-3c0-0.6,0.4-1,1-1h2c0.6,0,1,0.4,1,1v3c0,1.7,1.3,3,3,3h3c1.7,0,3-1.3,3-3V17h3c0.4,0,0.8-0.2,0.9-0.6   S31,15.6,30.7,15.3z M26,15c-0.6,0-1,0.4-1,1v12c0,0.6-0.4,1-1,1h-3c-0.6,0-1-0.4-1-1v-3c0-1.7-1.3-3-3-3h-2c-1.7,0-3,1.3-3,3v3   c0,0.6-0.4,1-1,1H8c-0.6,0-1-0.4-1-1V16c0-0.6-0.4-1-1-1H4.4L15.3,4.1c0.4-0.4,1-0.4,1.4,0c0,0,0,0,0,0L27.6,15H26z"/></g><text x="0" y="47" fill="#000000" font-size="5px" font-weight="bold" font-family="'Helvetica Neue', Helvetica, Arial-Unicode, Arial, Sans-serif">Created by Ahmad Roaayala</text><text x="0" y="52" fill="#000000" font-size="5px" font-weight="bold" font-family="'Helvetica Neue', Helvetica, Arial-Unicode, Arial, Sans-serif">from the Noun Project</text></svg>